<?xml version="1.0" standalone="no"?>
<!DOCTYPE svg PUBLIC "-//W3C//DTD SVG 20010904//EN"
 "http://www.w3.org/TR/2001/REC-SVG-20010904/DTD/svg10.dtd">
<svg version="1.0" xmlns="http://www.w3.org/2000/svg"
 width="176.000000pt" height="128.000000pt" viewBox="0 0 176.000000 128.000000"
 preserveAspectRatio="xMidYMid meet">

<g transform="translate(0.000000,128.000000) scale(0.100000,-0.100000)"
fill="#000000" stroke="none">
<path d="M1408 1171 c-97 -61 -128 -203 -69 -314 31 -58 30 -67 -3 -67 -19 0
-19 -1 -4 -16 17 -18 153 -48 169 -38 14 8 2 40 -38 107 -39 65 -69 78 -59 25
l6 -33 -19 25 c-62 79 -45 206 35 267 26 19 52 27 110 34 42 4 79 10 81 13 16
16 -18 26 -86 26 -68 0 -83 -3 -123 -29z"/>
<path d="M1507 1140 c-79 -15 -137 -84 -137 -161 0 -43 3 -49 21 -49 35 0 58
-19 84 -70 29 -57 56 -69 113 -52 46 14 90 54 108 98 38 90 -11 213 -90 229
-17 4 -38 8 -46 9 -8 2 -32 0 -53 -4z m43 -25 c0 -8 -4 -15 -9 -15 -13 0 -22
16 -14 24 11 11 23 6 23 -9z m75 -72 c-27 -42 -67 -83 -82 -83 -17 0 -93 50
-93 61 0 14 26 10 58 -8 29 -17 30 -17 73 20 52 44 68 47 44 10z m65 -68 c0
-8 -4 -15 -9 -15 -13 0 -22 16 -14 24 11 11 23 6 23 -9z m-275 -5 c-3 -5 -10
-10 -16 -10 -5 0 -9 5 -9 10 0 6 7 10 16 10 8 0 12 -4 9 -10z m135 -135 c0 -8
-4 -15 -9 -15 -13 0 -22 16 -14 24 11 11 23 6 23 -9z"/>
<path d="M320 1123 c-51 -2 -87 -9 -92 -16 -4 -7 -8 -130 -8 -274 l0 -263 48
6 c26 4 52 11 57 16 6 5 11 99 13 228 l3 220 459 0 458 0 7 36 c3 20 4 39 0
42 -7 7 -815 11 -945 5z"/>
<path d="M467 964 c-4 -4 -7 -16 -7 -26 0 -16 9 -18 71 -18 67 0 70 1 67 23
-3 20 -9 22 -63 25 -34 2 -64 0 -68 -4z"/>
<path d="M641 961 c-8 -5 -11 -16 -8 -25 5 -12 21 -16 67 -16 58 0 61 1 58 23
-3 19 -10 22 -53 25 -27 1 -56 -2 -64 -7z"/>
<path d="M817 963 c-4 -3 -7 -15 -7 -25 0 -15 8 -18 59 -18 63 0 81 11 61 35
-13 15 -100 21 -113 8z"/>
<path d="M977 963 c-4 -3 -7 -15 -7 -25 0 -16 9 -18 70 -18 62 0 70 2 70 19 0
10 -7 22 -16 25 -21 8 -109 8 -117 -1z"/>
<path d="M1147 964 c-4 -4 -7 -16 -7 -26 0 -16 9 -18 71 -18 67 0 70 1 67 23
-3 20 -9 22 -63 25 -34 2 -64 0 -68 -4z"/>
<path d="M471 881 c-26 -17 1 -31 59 -31 58 0 85 14 59 31 -8 5 -34 9 -59 9
-25 0 -51 -4 -59 -9z"/>
<path d="M641 881 c-26 -16 0 -31 54 -31 54 0 80 15 54 31 -8 5 -32 9 -54 9
-22 0 -46 -4 -54 -9z"/>
<path d="M815 880 c-12 -20 7 -30 60 -30 54 0 80 15 54 31 -19 12 -106 11
-114 -1z"/>
<path d="M975 880 c-13 -21 8 -30 65 -30 58 0 85 14 59 31 -19 12 -116 11
-124 -1z"/>
<path d="M1151 881 c-26 -17 1 -31 59 -31 58 0 85 14 59 31 -8 5 -34 9 -59 9
-25 0 -51 -4 -59 -9z"/>
<path d="M467 813 c-4 -3 -7 -15 -7 -25 0 -15 8 -18 44 -18 56 0 96 15 96 35
0 12 -13 15 -63 15 -35 0 -67 -3 -70 -7z"/>
<path d="M633 804 c-10 -25 11 -35 68 -32 47 3 54 6 57 26 3 21 0 22 -58 22
-46 0 -62 -4 -67 -16z"/>
<path d="M810 795 c0 -25 1 -26 63 -23 54 3 62 5 62 23 0 18 -8 20 -62 23 -62
3 -63 2 -63 -23z"/>
<path d="M970 795 c0 -26 1 -26 68 -23 59 3 67 5 67 23 0 18 -8 20 -67 23 -67
3 -68 3 -68 -23z"/>
<path d="M1143 804 c-10 -26 11 -35 73 -32 52 3 59 5 62 26 3 21 0 22 -63 22
-50 0 -67 -4 -72 -16z"/>
<path d="M464 729 c-10 -17 16 -29 63 -29 51 0 73 8 73 26 0 18 -125 20 -136
3z"/>
<path d="M635 729 c-11 -16 0 -22 52 -26 50 -4 80 7 69 26 -9 14 -113 14 -121
0z"/>
<path d="M800 730 c-25 -16 -1 -25 65 -25 65 0 82 6 70 24 -8 13 -114 14 -135
1z"/>
<path d="M970 726 c0 -18 22 -26 73 -26 47 0 73 12 63 29 -11 17 -136 15 -136
-3z"/>
<path d="M1144 729 c-10 -17 16 -29 63 -29 51 0 73 8 73 26 0 18 -125 20 -136
3z"/>
<path d="M1377 499 c-4 -117 -8 -213 -9 -214 -2 -2 -190 -6 -420 -10 l-416 -8
16 -33 17 -34 458 0 457 0 0 245 c0 188 -3 247 -12 250 -7 2 -29 6 -49 9 l-36
6 -6 -211z"/>
<path d="M630 605 l0 -45 325 0 325 0 0 45 0 45 -325 0 -325 0 0 -45z"/>
<path d="M233 530 c-28 -11 -63 -81 -96 -190 -17 -55 -35 -94 -52 -110 -57
-54 -36 -60 206 -60 183 0 249 5 249 20 0 4 -13 24 -30 45 -16 20 -41 74 -55
118 -30 100 -62 157 -95 174 -29 15 -95 16 -127 3z"/>
<path d="M630 475 l0 -55 325 0 325 0 0 55 0 55 -325 0 -325 0 0 -55z"/>
<path d="M243 123 c-31 -6 -29 -16 8 -47 40 -34 64 -33 101 5 25 25 29 33 17
40 -14 9 -85 10 -126 2z"/>
</g>
</svg>
