<?xml version="1.0" standalone="no"?>
<!DOCTYPE svg PUBLIC "-//W3C//DTD SVG 20010904//EN"
 "http://www.w3.org/TR/2001/REC-SVG-20010904/DTD/svg10.dtd">
<svg version="1.0" xmlns="http://www.w3.org/2000/svg"
 width="173.000000pt" height="139.000000pt" viewBox="0 0 173.000000 139.000000"
 preserveAspectRatio="xMidYMid meet">

<g transform="translate(0.000000,139.000000) scale(0.100000,-0.100000)"
fill="#000000" stroke="none">
<path d="M355 1333 c-68 -35 -305 -198 -305 -209 0 -6 55 -48 123 -91 167
-109 217 -137 226 -127 5 5 17 32 27 59 27 71 25 247 -3 324 -11 30 -24 56
-29 57 -5 2 -22 -4 -39 -13z m33 -55 c5 -7 13 -23 16 -35 6 -19 4 -23 -14 -23
-15 0 -26 -11 -37 -37 -20 -50 -12 -108 22 -143 30 -32 30 -65 0 -65 -32 0
-46 45 -46 154 -1 72 4 107 15 130 18 34 28 38 44 19z m-93 -151 l0 -134 -85
55 c-47 30 -93 60 -102 66 -14 8 -1 21 85 78 56 37 102 68 102 68 0 0 0 -60 0
-133z m109 19 c7 -35 0 -66 -14 -66 -11 0 -16 36 -11 73 5 37 17 34 25 -7z"/>
<path d="M451 866 c-7 -8 -11 -27 -9 -43 3 -27 6 -28 61 -31 l57 -3 0 39 c0
27 -5 42 -16 46 -29 11 -81 6 -93 -8z"/>
<path d="M1170 760 c-31 -31 -24 -68 30 -170 57 -109 91 -145 120 -130 10 5
21 18 25 29 8 25 -28 119 -66 171 -29 39 -33 42 -67 36 -35 -6 -36 -5 -18 9
11 8 25 15 31 15 13 0 56 -29 72 -50 10 -12 12 -3 13 48 l0 62 -60 0 c-47 0
-64 -4 -80 -20z"/>
<path d="M1320 730 l0 -50 123 0 c135 0 167 11 167 55 0 37 -28 45 -164 45
l-126 0 0 -50z m168 3 c-16 -2 -40 -2 -55 0 -16 2 -3 4 27 4 30 0 43 -2 28 -4z"/>
<path d="M1637 764 c-4 -4 -7 -18 -7 -31 0 -18 5 -24 18 -21 10 2 17 12 17 27
0 24 -15 37 -28 25z"/>
<path d="M390 560 l0 -200 110 0 110 0 0 200 0 200 -110 0 -110 0 0 -200z
m180 78 c0 -40 3 -102 6 -138 l6 -65 -71 3 -71 4 0 127 c0 70 3 131 7 134 3 4
33 7 65 7 l58 0 0 -72z"/>
<path d="M660 700 l0 -60 85 0 85 0 0 60 0 60 -85 0 -85 0 0 -60z"/>
<path d="M220 490 l0 -260 305 0 305 0 0 105 0 105 -85 0 -85 0 0 -60 0 -60
-148 0 -149 0 -6 128 c-4 70 -7 166 -7 215 l0 87 -65 0 -65 0 0 -260z"/>
<path d="M660 540 l0 -60 86 0 87 0 -7 52 c-4 29 -8 53 -9 54 -1 1 -37 4 -79
7 l-78 7 0 -60z m98 -2 c2 -19 -2 -28 -17 -33 -26 -8 -61 11 -61 34 0 26 10
32 45 29 24 -2 31 -8 33 -30z"/>
<path d="M1360 497 c0 -21 -38 -51 -68 -53 -15 -1 -28 -3 -29 -3 -4 -2 29 -76
40 -89 8 -10 16 -5 37 20 22 26 34 32 64 31 l37 -1 -29 51 c-29 51 -52 71 -52
44z"/>
<path d="M1364 373 c-28 -29 -86 -160 -92 -209 -3 -33 -11 -49 -28 -61 -30
-19 -31 -40 -3 -48 35 -12 247 6 260 21 9 11 6 16 -14 25 -31 14 -37 42 -37
168 0 62 -4 101 -12 109 -17 17 -54 15 -74 -5z"/>
<path d="M245 147 c-4 -18 -2 -44 4 -58 13 -36 39 -39 319 -39 l232 0 0 65 0
65 -275 0 -274 0 -6 -33z"/>
</g>
</svg>
