<?xml version="1.0" standalone="no"?>
<!DOCTYPE svg PUBLIC "-//W3C//DTD SVG 20010904//EN"
 "http://www.w3.org/TR/2001/REC-SVG-20010904/DTD/svg10.dtd">
<svg version="1.0" xmlns="http://www.w3.org/2000/svg"
 width="196.000000pt" height="137.000000pt" viewBox="0 0 196.000000 137.000000"
 preserveAspectRatio="xMidYMid meet">

<g transform="translate(0.000000,137.000000) scale(0.100000,-0.100000)"
fill="#000000" stroke="none">
<path d="M1258 1313 l-78 -4 0 -179 0 -180 30 0 29 0 3 158 3 157 305 -4 c168
-2 306 -5 308 -6 2 -2 6 -91 9 -199 l6 -196 -297 0 -297 0 3 -27 c3 -28 3 -28
91 -31 84 -3 87 -4 87 -27 0 -48 -9 -55 -66 -55 -57 0 -66 -10 -41 -43 16 -22
160 -32 340 -22 121 6 136 9 125 22 -17 21 -54 34 -118 42 l-55 6 -3 38 -3 37
142 0 141 0 -4 250 c-2 137 -6 251 -8 253 -7 6 -560 15 -652 10z"/>
<path d="M816 1226 c-6 -30 -12 -36 -65 -55 -100 -36 -182 -119 -197 -198 -11
-57 2 -146 27 -194 l24 -44 5 94 5 93 57 53 c58 54 111 76 131 56 6 -6 13 -29
16 -51 l6 -40 93 76 c50 42 92 80 92 83 0 6 -132 121 -171 148 -15 11 -18 9
-23 -21z"/>
<path d="M680 716 l0 -206 135 0 135 0 56 45 c31 26 61 44 68 42 6 -2 10 -22
9 -46 -2 -41 -2 -41 34 -41 41 0 87 30 108 70 17 34 20 162 4 229 -7 30 -6 47
1 56 14 17 -21 22 -215 31 -140 6 -183 9 -282 20 l-53 6 0 -206z"/>
<path d="M287 893 c-4 -3 -7 -21 -7 -39 0 -34 13 -44 60 -44 49 0 60 9 60 51
l0 39 -53 0 c-30 0 -57 -3 -60 -7z"/>
<path d="M490 764 c-6 -14 -10 -41 -10 -60 l0 -34 65 0 c36 0 65 3 65 8 0 23
-77 112 -97 112 -7 0 -18 -12 -23 -26z"/>
<path d="M60 510 l0 -270 163 0 c90 0 225 3 299 6 l135 7 6 66 c3 36 3 82 -1
101 l-8 35 -73 3 c-84 3 -91 -1 -91 -64 0 -28 -5 -44 -15 -48 -9 -3 -76 -9
-150 -12 l-135 -7 0 226 0 227 -65 0 -65 0 0 -270z"/>
<path d="M230 574 l0 -207 46 7 c26 3 75 6 110 6 l64 0 0 200 0 200 -110 0
-110 0 0 -206z m170 37 c0 -77 -3 -142 -7 -144 -5 -3 -34 -8 -65 -12 l-58 -7
0 151 0 151 65 0 65 0 0 -139z"/>
<path d="M1274 698 c1 -79 -19 -132 -66 -174 -34 -31 -86 -56 -111 -52 -18 2
-23 11 -27 52 l-5 49 -75 -60 c-41 -33 -85 -71 -98 -85 l-23 -25 93 -81 93
-80 10 36 c9 32 17 39 71 59 125 48 194 142 194 262 0 49 -7 80 -25 119 -13
28 -26 52 -28 52 -2 0 -4 -33 -3 -72z"/>
<path d="M495 610 c-9 -14 -9 -75 0 -89 9 -16 124 -14 131 2 2 7 1 31 -4 52
l-8 40 -56 3 c-34 2 -59 -2 -63 -8z m103 -42 c2 -19 -2 -28 -17 -33 -33 -10
-61 3 -61 29 0 31 9 37 45 34 24 -2 31 -8 33 -30z"/>
<path d="M80 141 l0 -61 280 0 280 0 0 43 c0 75 12 72 -290 75 l-270 3 0 -60z"/>
</g>
</svg>
