<?xml version="1.0" standalone="no"?>
<!DOCTYPE svg PUBLIC "-//W3C//DTD SVG 20010904//EN"
 "http://www.w3.org/TR/2001/REC-SVG-20010904/DTD/svg10.dtd">
<svg version="1.0" xmlns="http://www.w3.org/2000/svg"
 width="135.000000pt" height="121.000000pt" viewBox="0 0 135.000000 121.000000"
 preserveAspectRatio="xMidYMid meet">

<g transform="translate(0.000000,121.000000) scale(0.100000,-0.100000)"
fill="#000000" stroke="none">
<path d="M40 735 l0 -425 240 0 240 0 0 -75 0 -75 -102 0 c-111 0 -123 -4
-198 -69 l-35 -30 489 -1 490 0 -44 37 c-68 59 -77 62 -187 63 l-103 0 0 75 0
75 240 0 240 0 0 425 0 425 -635 0 -635 0 0 -425z m1160 5 l0 -340 -187 0
c-104 0 -340 3 -525 7 l-338 6 0 334 0 333 525 0 525 0 0 -340z"/>
<path d="M613 967 c-17 -7 -35 -15 -39 -19 -7 -8 85 -137 99 -138 4 0 7 38 7
85 0 94 -2 96 -67 72z"/>
<path d="M710 868 c0 -57 -4 -109 -9 -117 -7 -11 -28 -6 -116 28 -59 22 -111
39 -116 35 -5 -3 -9 -31 -9 -63 0 -72 37 -149 93 -195 38 -30 42 -31 141 -31
100 0 103 1 143 33 83 65 114 181 74 274 -37 87 -100 138 -171 138 l-30 0 0
-102z"/>
<path d="M517 898 c-15 -19 -27 -40 -27 -46 0 -11 149 -76 157 -68 5 5 -37 68
-80 120 l-24 29 -26 -35z"/>
</g>
</svg>
