<?xml version="1.0" standalone="no"?>
<!DOCTYPE svg PUBLIC "-//W3C//DTD SVG 20010904//EN"
 "http://www.w3.org/TR/2001/REC-SVG-20010904/DTD/svg10.dtd">
<svg version="1.0" xmlns="http://www.w3.org/2000/svg"
 width="197.000000pt" height="138.000000pt" viewBox="0 0 197.000000 138.000000"
 preserveAspectRatio="xMidYMid meet">

<g transform="translate(0.000000,138.000000) scale(0.100000,-0.100000)"
fill="#000000" stroke="none">
<path d="M344 1219 c-87 -55 -166 -107 -174 -115 -13 -14 -11 -19 20 -45 49
-42 288 -191 307 -193 28 -2 55 86 60 194 4 79 2 105 -16 157 -12 34 -21 69
-21 77 0 8 -4 17 -8 20 -5 3 -80 -40 -168 -95z m158 7 c9 -21 7 -29 -15 -55
-34 -41 -40 -64 -32 -118 5 -35 13 -48 36 -61 34 -20 35 -23 10 -53 -25 -30
-40 -18 -52 43 -28 146 12 333 53 244z m-102 -203 l-5 -62 -99 63 c-113 73
-117 54 24 139 l75 46 5 -62 c3 -34 3 -90 0 -124z m120 67 c0 -14 -5 -32 -10
-40 -9 -13 -11 -13 -20 0 -13 20 -13 47 1 72 9 17 13 18 20 7 5 -8 9 -25 9
-39z"/>
<path d="M263 791 c-157 -5 -185 -8 -200 -24 -17 -16 -18 -45 -18 -357 0 -312
1 -341 18 -357 17 -17 68 -18 890 -21 480 -2 891 0 914 3 39 6 43 9 53 46 17
60 9 674 -8 691 -9 9 -68 15 -200 20 -218 7 -1184 7 -1449 -1z m160 -81 c6
-22 -16 -50 -39 -50 -26 0 -54 20 -54 39 0 26 9 31 51 31 28 0 38 -5 42 -20z
m585 -12 c2 -19 -2 -28 -17 -33 -26 -8 -61 11 -61 34 0 26 10 32 45 29 24 -2
31 -8 33 -30z m590 5 c2 -14 -4 -26 -18 -33 -29 -16 -60 -4 -60 24 0 31 9 37
45 34 22 -2 31 -9 33 -25z m-1328 -243 l0 -181 112 3 c91 2 113 6 115 18 1 8
4 32 8 53 l6 37 64 0 65 0 0 -90 0 -90 -240 0 -240 0 0 215 0 215 55 0 55 0 0
-180z m200 20 l0 -160 -90 0 -90 0 0 160 0 160 90 0 90 0 0 -160z m170 110 l0
-50 -70 0 -70 0 0 50 0 50 70 0 70 0 0 -50z m210 -130 l0 -180 120 0 120 0 0
55 0 55 70 0 70 0 0 -90 0 -90 -245 0 -245 0 0 215 0 215 55 0 55 0 0 -180z
m200 20 l0 -160 -85 0 -85 0 0 160 0 160 85 0 85 0 0 -160z m180 110 l0 -50
-70 0 -70 0 0 50 0 50 70 0 70 0 0 -50z m210 -130 l0 -180 120 0 120 0 0 55 0
55 65 0 65 0 0 -90 0 -90 -240 0 -240 0 0 215 0 215 55 0 55 0 0 -180z m200
20 l0 -160 -80 0 -80 0 0 160 0 160 80 0 80 0 0 -160z m170 110 l0 -50 -65 0
-65 0 0 50 0 50 65 0 65 0 0 -50z m-1172 -120 c5 -31 -21 -50 -67 -50 -53 0
-66 13 -62 62 1 19 45 27 96 18 22 -4 31 -12 33 -30z m590 0 c5 -31 -21 -50
-68 -50 -47 0 -73 19 -68 50 3 28 40 39 98 30 28 -4 36 -10 38 -30z m582 -4
c0 -38 -14 -46 -87 -46 l-43 0 1 38 c1 32 2 33 8 12 8 -28 43 -39 67 -20 20
17 18 29 -8 40 -19 7 -16 9 20 9 41 1 42 0 42 -33z m-1200 -341 l0 -45 -215 0
-215 0 0 45 0 45 215 0 215 0 0 -45z m590 0 l0 -45 -215 0 -215 0 0 45 0 45
215 0 215 0 0 -45z m590 0 l0 -45 -215 0 -215 0 0 45 0 45 215 0 215 0 0 -45z"/>
<path d="M320 507 c0 -111 6 -127 49 -127 70 1 71 2 71 121 l0 109 -60 0 -60
0 0 -103z"/>
<path d="M920 500 l0 -110 50 0 50 0 0 110 0 110 -50 0 -50 0 0 -110z"/>
<path d="M1510 501 c0 -120 0 -121 73 -121 l27 0 0 115 0 115 -50 0 -50 0 0
-109z"/>
<path d="M527 483 c-4 -3 -7 -15 -7 -25 0 -13 8 -18 30 -18 25 0 30 4 30 25 0
20 -5 25 -23 25 -13 0 -27 -3 -30 -7z"/>
<path d="M1110 466 c0 -22 4 -26 31 -26 26 0 30 3 27 23 -2 16 -11 23 -30 25
-24 3 -28 0 -28 -22z"/>
</g>
</svg>
