<?xml version="1.0" standalone="no"?>
<!DOCTYPE svg PUBLIC "-//W3C//DTD SVG 20010904//EN"
 "http://www.w3.org/TR/2001/REC-SVG-20010904/DTD/svg10.dtd">
<svg version="1.0" xmlns="http://www.w3.org/2000/svg"
 width="180.000000pt" height="136.000000pt" viewBox="0 0 180.000000 136.000000"
 preserveAspectRatio="xMidYMid meet">

<g transform="translate(0.000000,136.000000) scale(0.100000,-0.100000)"
fill="#000000" stroke="none">
<path d="M1353 1280 c-96 -48 -143 -124 -143 -230 0 -71 15 -112 60 -164 64
-72 164 -106 254 -86 79 18 50 43 -39 34 l-60 -7 49 43 48 44 -88 44 c-49 24
-90 46 -92 47 -2 2 12 37 32 79 31 68 38 76 63 76 33 0 122 -40 141 -62 9 -12
10 -23 2 -43 -6 -15 -8 -30 -5 -33 3 -3 5 -1 5 4 0 6 6 19 14 30 14 19 15 19
40 -5 38 -36 40 -21 4 23 -31 38 -153 106 -190 106 -27 0 -22 15 16 43 66 51
105 45 132 -18 9 -20 13 -24 14 -12 0 30 22 14 47 -33 19 -35 23 -59 23 -125
0 -86 5 -102 27 -84 9 8 13 36 13 89 0 66 -4 86 -28 131 -67 129 -209 174
-339 109z m108 -42 c-34 -25 -56 -32 -100 -35 l-56 -4 29 24 c34 30 77 45 130
46 l40 1 -43 -32z m-61 -62 c0 -2 -16 -38 -36 -80 l-35 -78 -25 29 c-49 55
-54 106 -11 123 21 8 107 14 107 6z m-120 -127 c35 -44 53 -100 43 -137 -4
-19 -8 -21 -21 -10 -22 18 -49 85 -57 141 -4 26 -5 47 -3 47 3 0 19 -18 38
-41z m144 -104 c42 -20 76 -38 76 -40 0 -2 -17 -16 -37 -30 -40 -27 -91 -33
-111 -13 -10 10 -18 118 -8 118 2 0 38 -16 80 -35z"/>
<path d="M60 1105 l0 -194 98 -3 c89 -3 97 -5 97 -23 0 -15 -9 -21 -44 -27
-43 -7 -71 -23 -71 -39 0 -5 88 -9 195 -9 160 0 193 2 189 14 -7 18 -48 36
-84 36 -28 0 -41 14 -32 38 3 8 32 12 98 12 l94 0 0 195 0 195 -270 0 -270 0
0 -195z m508 8 l-3 -148 -232 -3 -233 -2 0 139 c0 123 2 141 18 150 10 6 106
11 235 11 l218 0 -3 -147z"/>
<path d="M140 1220 c0 -5 9 -10 20 -10 11 0 20 5 20 10 0 6 -9 10 -20 10 -11
0 -20 -4 -20 -10z"/>
<path d="M205 1220 c-4 -6 12 -10 39 -10 25 0 46 5 46 10 0 6 -18 10 -39 10
-22 0 -43 -4 -46 -10z"/>
<path d="M310 1220 c0 -5 9 -10 20 -10 11 0 20 5 20 10 0 6 -9 10 -20 10 -11
0 -20 -4 -20 -10z"/>
<path d="M370 1220 c0 -5 23 -10 51 -10 31 0 48 4 44 10 -3 6 -26 10 -51 10
-24 0 -44 -4 -44 -10z"/>
<path d="M490 1220 c0 -5 7 -10 15 -10 8 0 15 5 15 10 0 6 -7 10 -15 10 -8 0
-15 -4 -15 -10z"/>
<path d="M140 1180 c0 -5 9 -10 20 -10 11 0 20 5 20 10 0 6 -9 10 -20 10 -11
0 -20 -4 -20 -10z"/>
<path d="M210 1180 c0 -5 7 -10 15 -10 8 0 15 5 15 10 0 6 -7 10 -15 10 -8 0
-15 -4 -15 -10z"/>
<path d="M260 1180 c0 -5 9 -10 20 -10 11 0 20 5 20 10 0 6 -9 10 -20 10 -11
0 -20 -4 -20 -10z"/>
<path d="M310 1180 c0 -5 9 -10 20 -10 11 0 20 5 20 10 0 6 -9 10 -20 10 -11
0 -20 -4 -20 -10z"/>
<path d="M370 1180 c0 -5 23 -10 51 -10 31 0 48 4 44 10 -3 6 -26 10 -51 10
-24 0 -44 -4 -44 -10z"/>
<path d="M490 1180 c0 -5 7 -10 15 -10 8 0 15 5 15 10 0 6 -7 10 -15 10 -8 0
-15 -4 -15 -10z"/>
<path d="M140 1140 c0 -5 9 -10 20 -10 11 0 20 5 20 10 0 6 -9 10 -20 10 -11
0 -20 -4 -20 -10z"/>
<path d="M200 1140 c0 -5 6 -10 14 -10 8 0 18 5 21 10 3 6 -3 10 -14 10 -12 0
-21 -4 -21 -10z"/>
<path d="M260 1140 c0 -5 9 -10 20 -10 11 0 20 5 20 10 0 6 -9 10 -20 10 -11
0 -20 -4 -20 -10z"/>
<path d="M310 1140 c0 -5 9 -10 20 -10 11 0 20 5 20 10 0 6 -9 10 -20 10 -11
0 -20 -4 -20 -10z"/>
<path d="M370 1140 c0 -5 18 -10 39 -10 22 0 43 5 46 10 4 6 -12 10 -39 10
-25 0 -46 -4 -46 -10z"/>
<path d="M490 1140 c0 -5 4 -10 9 -10 6 0 13 5 16 10 3 6 -1 10 -9 10 -9 0
-16 -4 -16 -10z"/>
<path d="M147 1103 c-4 -3 -7 -30 -7 -60 l0 -53 60 0 60 0 0 60 0 60 -53 0
c-30 0 -57 -3 -60 -7z"/>
<path d="M270 1050 l0 -60 60 0 60 0 0 60 0 60 -60 0 -60 0 0 -60z"/>
<path d="M410 1050 l0 -60 55 0 55 0 0 48 c0 59 -12 72 -67 72 l-43 0 0 -60z"/>
<path d="M1550 929 c27 -68 49 -109 58 -109 5 0 13 5 20 12 9 9 16 8 30 -5 10
-9 24 -17 30 -17 17 0 15 25 -3 40 -17 14 -20 40 -5 40 6 0 10 6 10 14 0 12
-126 76 -150 76 -5 0 -1 -23 10 -51z"/>
<path d="M562 787 c-80 -25 -182 -157 -182 -234 0 -50 15 -40 40 29 31 86 106
160 184 183 30 9 58 21 61 26 8 12 -61 10 -103 -4z"/>
<path d="M1145 790 c3 -5 33 -19 66 -31 94 -34 179 -130 179 -202 0 -13 7 -30
15 -37 25 -20 30 15 11 75 -21 68 -89 145 -158 179 -50 25 -125 36 -113 16z"/>
<path d="M580 737 c-79 -41 -132 -107 -146 -181 -9 -53 15 -44 37 13 25 68 65
110 135 142 35 15 64 31 64 34 0 10 -65 5 -90 -8z"/>
<path d="M1145 734 c11 -8 36 -19 57 -24 47 -13 114 -88 132 -149 18 -63 41
-68 34 -8 -9 76 -48 131 -120 166 -66 33 -142 44 -103 15z"/>
<path d="M603 679 c-55 -27 -100 -79 -109 -124 -11 -58 18 -62 31 -4 9 39 66
96 108 107 17 4 33 16 35 25 5 23 -14 21 -65 -4z"/>
<path d="M1140 685 c0 -8 19 -23 43 -33 49 -22 71 -44 92 -95 18 -43 35 -48
35 -11 0 42 -38 92 -94 124 -57 33 -76 37 -76 15z"/>
<path d="M650 571 l-45 -6 -5 -65 c-3 -36 -4 -125 -2 -197 l4 -133 62 -1 c69
0 153 -12 163 -23 13 -13 -14 -41 -48 -49 -55 -14 -89 -29 -89 -38 0 -5 95 -9
211 -9 164 0 210 3 207 13 -3 6 -27 17 -54 22 -62 13 -74 21 -74 49 0 30 21
36 133 36 l87 0 0 205 0 205 -252 -2 c-139 0 -273 -4 -298 -7z m500 -201 l0
-170 -252 2 -253 3 -3 168 -2 167 255 0 255 0 0 -170z"/>
<path d="M700 500 c0 -5 9 -10 20 -10 11 0 20 5 20 10 0 6 -9 10 -20 10 -11 0
-20 -4 -20 -10z"/>
<path d="M755 500 c-4 -6 5 -10 19 -10 14 0 26 5 26 10 0 6 -9 10 -19 10 -11
0 -23 -4 -26 -10z"/>
<path d="M825 500 c-3 -5 3 -10 15 -10 12 0 18 5 15 10 -3 6 -10 10 -15 10 -5
0 -12 -4 -15 -10z"/>
<path d="M880 500 c0 -5 9 -10 20 -10 11 0 20 5 20 10 0 6 -9 10 -20 10 -11 0
-20 -4 -20 -10z"/>
<path d="M950 500 c0 -5 9 -10 20 -10 11 0 20 5 20 10 0 6 -9 10 -20 10 -11 0
-20 -4 -20 -10z"/>
<path d="M1010 500 c0 -5 7 -10 15 -10 8 0 15 5 15 10 0 6 -7 10 -15 10 -8 0
-15 -4 -15 -10z"/>
<path d="M1070 500 c0 -5 9 -10 20 -10 11 0 20 5 20 10 0 6 -9 10 -20 10 -11
0 -20 -4 -20 -10z"/>
<path d="M700 460 c0 -5 7 -10 16 -10 8 0 12 5 9 10 -3 6 -10 10 -16 10 -5 0
-9 -4 -9 -10z"/>
<path d="M765 460 c-3 -5 3 -10 15 -10 12 0 18 5 15 10 -3 6 -10 10 -15 10 -5
0 -12 -4 -15 -10z"/>
<path d="M898 453 c7 -3 16 -2 19 1 4 3 -2 6 -13 5 -11 0 -14 -3 -6 -6z"/>
<path d="M958 453 c7 -3 16 -2 19 1 4 3 -2 6 -13 5 -11 0 -14 -3 -6 -6z"/>
<path d="M1018 453 c7 -3 16 -2 19 1 4 3 -2 6 -13 5 -11 0 -14 -3 -6 -6z"/>
<path d="M1088 453 c7 -3 16 -2 19 1 4 3 -2 6 -13 5 -11 0 -14 -3 -6 -6z"/>
<path d="M760 411 c0 -11 26 -22 34 -14 12 12 5 23 -14 23 -11 0 -20 -4 -20
-9z"/>
<path d="M885 410 c3 -5 13 -10 21 -10 8 0 14 5 14 10 0 6 -9 10 -21 10 -11 0
-17 -4 -14 -10z"/>
<path d="M950 410 c0 -5 6 -10 14 -10 8 0 18 5 21 10 3 6 -3 10 -14 10 -12 0
-21 -4 -21 -10z"/>
<path d="M1015 410 c3 -5 10 -10 16 -10 5 0 9 5 9 10 0 6 -7 10 -16 10 -8 0
-12 -4 -9 -10z"/>
<path d="M1078 413 c7 -3 16 -2 19 1 4 3 -2 6 -13 5 -11 0 -14 -3 -6 -6z"/>
<path d="M700 310 c0 -5 6 -10 14 -10 8 0 18 5 21 10 3 6 -3 10 -14 10 -12 0
-21 -4 -21 -10z"/>
<path d="M755 310 c3 -5 15 -10 26 -10 10 0 19 5 19 10 0 6 -12 10 -26 10 -14
0 -23 -4 -19 -10z"/>
<path d="M830 310 c0 -5 4 -10 9 -10 6 0 13 5 16 10 3 6 -1 10 -9 10 -9 0 -16
-4 -16 -10z"/>
<path d="M890 310 c0 -5 7 -10 15 -10 8 0 15 5 15 10 0 6 -7 10 -15 10 -8 0
-15 -4 -15 -10z"/>
<path d="M945 310 c3 -5 15 -10 26 -10 10 0 19 5 19 10 0 6 -12 10 -26 10 -14
0 -23 -4 -19 -10z"/>
<path d="M1010 310 c0 -5 7 -10 15 -10 8 0 15 5 15 10 0 6 -7 10 -15 10 -8 0
-15 -4 -15 -10z"/>
<path d="M1060 310 c0 -5 11 -10 25 -10 14 0 25 5 25 10 0 6 -11 10 -25 10
-14 0 -25 -4 -25 -10z"/>
<path d="M768 263 c7 -3 16 -2 19 1 4 3 -2 6 -13 5 -11 0 -14 -3 -6 -6z"/>
<path d="M898 263 c7 -3 16 -2 19 1 4 3 -2 6 -13 5 -11 0 -14 -3 -6 -6z"/>
<path d="M958 263 c7 -3 16 -2 19 1 4 3 -2 6 -13 5 -11 0 -14 -3 -6 -6z"/>
<path d="M1018 263 c7 -3 16 -2 19 1 4 3 -2 6 -13 5 -11 0 -14 -3 -6 -6z"/>
<path d="M1078 263 c7 -3 16 -2 19 1 4 3 -2 6 -13 5 -11 0 -14 -3 -6 -6z"/>
</g>
</svg>
