<?xml version="1.0" standalone="no"?>
<!DOCTYPE svg PUBLIC "-//W3C//DTD SVG 20010904//EN"
 "http://www.w3.org/TR/2001/REC-SVG-20010904/DTD/svg10.dtd">
<svg version="1.0" xmlns="http://www.w3.org/2000/svg"
 width="141.000000pt" height="121.000000pt" viewBox="0 0 141.000000 121.000000"
 preserveAspectRatio="xMidYMid meet">

<g transform="translate(0.000000,121.000000) scale(0.100000,-0.100000)"
fill="#000000" stroke="none">
<path d="M70 725 l0 -425 240 0 240 0 0 -44 c0 -24 -3 -58 -6 -75 l-6 -31
-102 0 -101 0 -57 -43 -57 -42 240 -3 c131 -1 347 -1 480 0 l240 3 -52 39
c-50 39 -54 40 -152 45 -96 6 -102 7 -114 31 -7 14 -12 45 -11 70 l3 45 238 3
237 2 0 425 0 425 -630 0 -630 0 0 -425z m1160 4 l0 -342 -522 8 c-288 4 -524
8 -526 10 -7 6 -15 633 -9 649 6 14 56 16 532 16 l525 0 0 -341z"/>
<path d="M267 978 c-20 -16 -31 -68 -18 -87 5 -8 33 -16 65 -19 l56 -4 0 61 0
61 -43 0 c-24 0 -51 -6 -60 -12z"/>
<path d="M412 978 c-14 -14 -16 -76 -3 -97 22 -35 60 30 49 85 -4 23 -29 29
-46 12z"/>
<path d="M480 930 l0 -60 165 0 165 0 0 60 0 60 -165 0 -165 0 0 -60z"/>
<path d="M834 977 c-3 -8 -4 -34 -2 -58 3 -40 6 -44 31 -47 l28 -3 -3 58 c-3
51 -6 58 -26 61 -12 2 -24 -3 -28 -11z"/>
<path d="M920 930 l0 -60 115 0 115 0 0 60 0 60 -115 0 -115 0 0 -60z"/>
<path d="M256 768 c-9 -37 -7 -73 6 -86 8 -8 48 -12 115 -12 l103 0 0 60 0 60
-109 0 c-104 0 -109 -1 -115 -22z"/>
<path d="M507 784 c-4 -4 -7 -32 -7 -61 0 -53 1 -54 28 -51 26 3 27 5 27 58 0
48 -3 55 -20 58 -12 2 -24 0 -28 -4z"/>
<path d="M590 730 l0 -60 160 0 160 0 0 60 0 60 -160 0 -160 0 0 -60z"/>
<path d="M947 784 c-4 -4 -7 -32 -7 -61 0 -53 1 -54 28 -51 26 3 27 5 27 58 0
48 -3 55 -20 58 -12 2 -24 0 -28 -4z"/>
<path d="M1020 730 l0 -60 65 0 65 0 0 60 0 60 -65 0 -65 0 0 -60z"/>
<path d="M259 569 c-14 -14 -19 -30 -17 -57 l3 -37 63 -3 62 -3 0 61 0 60 -45
0 c-32 0 -51 -6 -66 -21z"/>
<path d="M405 567 c-4 -13 -5 -39 -3 -58 2 -29 7 -34 28 -34 24 0 25 3 25 55
0 49 -2 55 -22 58 -17 2 -24 -3 -28 -21z"/>
<path d="M480 530 l0 -60 165 0 165 0 0 60 0 60 -165 0 -165 0 0 -60z"/>
<path d="M840 531 c0 -59 1 -61 25 -61 25 0 26 2 23 58 -3 50 -6 57 -25 60
-22 3 -23 0 -23 -57z"/>
<path d="M920 530 l0 -60 115 0 115 0 0 60 0 60 -115 0 -115 0 0 -60z"/>
</g>
</svg>
