<?xml version="1.0" standalone="no"?>
<!DOCTYPE svg PUBLIC "-//W3C//DTD SVG 20010904//EN"
 "http://www.w3.org/TR/2001/REC-SVG-20010904/DTD/svg10.dtd">
<svg version="1.0" xmlns="http://www.w3.org/2000/svg"
 width="824.000000pt" height="588.000000pt" viewBox="0 0 824.000000 588.000000"
 preserveAspectRatio="xMidYMid meet">

<g transform="translate(0.000000,588.000000) scale(0.100000,-0.100000)"
fill="#000000" stroke="none">
<path d="M1623 5737 c-12 -6 -56 -32 -98 -57 -42 -25 -88 -51 -101 -58 -13 -7
-53 -32 -88 -55 -35 -23 -90 -58 -122 -77 -31 -19 -85 -53 -119 -76 -34 -22
-68 -43 -76 -46 -8 -3 -44 -25 -80 -49 -67 -45 -183 -120 -364 -235 -115 -73
-94 -60 -250 -164 -243 -162 -275 -187 -275 -220 0 -30 70 -107 142 -156 23
-16 79 -56 124 -89 93 -69 100 -73 180 -126 32 -22 77 -51 99 -66 22 -15 47
-32 56 -38 21 -13 236 -155 312 -206 32 -21 60 -39 63 -39 3 0 17 -8 32 -19
37 -25 234 -153 303 -196 15 -9 34 -20 134 -79 91 -54 168 -87 193 -84 l27 3
0 101 0 100 48 70 c26 39 47 77 47 85 0 8 6 23 14 34 17 25 39 102 88 305 21
86 23 119 23 350 0 282 -5 317 -80 610 -25 93 -94 240 -114 240 -4 0 -15 24
-23 53 -13 40 -14 66 -8 112 6 39 5 64 -2 72 -13 16 -56 16 -85 0z m-25 -330
c23 -13 82 -93 82 -112 1 -5 9 -28 20 -50 25 -53 25 -79 -2 -109 -23 -26 -113
-66 -147 -66 -25 0 -71 -54 -98 -115 -59 -137 -73 -320 -34 -458 20 -71 31
-94 85 -182 21 -34 68 -73 139 -116 43 -26 47 -33 47 -67 0 -63 -18 -107 -63
-156 -45 -48 -73 -56 -119 -35 -39 17 -105 171 -123 284 -4 22 -14 74 -23 115
-13 61 -17 132 -16 370 0 286 1 298 26 396 14 56 43 135 63 176 45 94 79 127
135 136 3 1 15 -4 28 -11z m-352 -132 c4 -8 2 -21 -4 -28 -5 -6 -22 -61 -38
-122 l-28 -110 0 -455 c-1 -422 -2 -455 -18 -458 -15 -3 -100 40 -173 88 -171
112 -382 259 -440 308 -6 5 -33 24 -60 43 -28 19 -67 50 -89 69 -21 19 -44 39
-52 43 -15 8 -20 77 -6 77 5 0 17 8 28 18 10 9 37 29 59 43 22 14 85 55 140
91 55 35 114 73 130 84 17 10 37 23 46 29 8 5 37 24 64 40 26 17 77 49 112 73
36 23 67 42 71 42 3 0 35 20 71 43 108 71 125 82 146 89 31 10 35 9 41 -7z
m445 -427 c31 -70 32 -224 2 -308 -19 -52 -22 -55 -54 -55 -32 0 -34 2 -56 70
-37 116 -28 271 20 333 5 6 22 12 37 12 24 0 31 -8 51 -52z"/>
<path d="M5044 5434 c-49 -26 -111 -61 -139 -78 -68 -43 -84 -52 -129 -78 -21
-13 -46 -28 -55 -33 -26 -17 -342 -206 -461 -276 -65 -39 -120 -79 -120 -88 0
-4 14 -16 31 -26 54 -34 103 -63 134 -79 17 -9 48 -27 70 -41 22 -13 54 -32
70 -40 17 -9 46 -26 66 -38 20 -12 72 -42 114 -67 42 -25 94 -55 114 -67 35
-22 53 -32 136 -77 192 -104 246 -126 306 -126 31 0 62 8 93 26 73 41 83 80
41 149 -37 60 -33 86 23 135 47 43 105 83 152 108 14 7 43 24 65 37 72 44 89
49 165 48 53 0 90 -6 125 -21 48 -21 92 -28 145 -24 14 1 42 18 64 38 34 31
38 39 33 70 -4 21 -17 44 -36 60 -32 27 -146 105 -190 130 -14 8 -44 26 -66
39 -22 13 -51 29 -65 35 -13 6 -31 17 -38 23 -8 7 -43 28 -77 47 -94 52 -338
190 -355 200 -22 14 -116 60 -122 60 -2 0 -45 -21 -94 -46z m24 -417 c16 -19
-40 -71 -68 -62 -22 7 -27 44 -8 63 16 16 63 15 76 -1z m233 -24 c33 -32 44
-74 32 -124 -7 -24 -16 -35 -31 -37 -20 -3 -21 -1 -11 22 17 36 3 88 -31 121
-17 16 -30 32 -30 37 0 18 44 6 71 -19z m-43 -179 c25 -7 11 -24 -30 -35 -51
-13 -173 -8 -189 8 -9 9 -9 16 1 28 10 13 29 14 109 9 53 -3 102 -7 109 -10z"/>
<path d="M4120 4792 c-31 -9 -40 -36 -40 -115 0 -51 8 -108 22 -159 19 -69 28
-86 74 -133 29 -29 81 -70 116 -90 100 -58 168 -99 283 -174 80 -52 118 -87
141 -133 21 -41 24 -64 29 -225 8 -226 22 -273 101 -338 68 -55 132 -86 184
-88 89 -4 100 56 100 559 0 365 4 340 -65 378 -16 9 -48 28 -70 41 -22 13 -53
32 -70 40 -16 9 -48 27 -70 40 -22 14 -51 30 -65 37 -14 7 -40 23 -59 35 -18
13 -56 34 -85 49 -28 14 -69 37 -91 50 -22 13 -58 33 -80 44 -22 11 -58 31
-80 44 -22 13 -71 41 -110 61 -38 21 -88 47 -110 59 -22 13 -47 21 -55 18z"/>
<path d="M6102 4783 c-66 -23 -124 -88 -151 -170 -19 -55 -26 -112 -38 -308
-22 -343 -27 -398 -38 -416 -5 -9 -42 -34 -82 -55 -40 -22 -94 -51 -120 -65
-26 -15 -81 -43 -120 -64 -40 -20 -75 -41 -79 -46 -3 -5 -16 -9 -29 -9 l-23 0
-4 320 c-3 281 -5 321 -20 336 -37 37 -107 11 -152 -56 -41 -60 -45 -106 -45
-516 -1 -277 1 -334 13 -343 15 -12 40 -5 70 20 27 22 86 58 107 64 13 4 30
13 38 19 8 6 55 14 105 17 94 6 119 16 223 82 44 28 123 119 123 142 0 18 97
104 162 143 30 17 71 49 91 70 57 59 67 128 67 487 0 287 -5 339 -33 357 -14
9 -10 10 -65 -9z m26 -370 c3 -67 1 -74 -26 -104 -21 -23 -34 -30 -47 -26 -15
6 -17 18 -13 91 5 94 17 119 57 114 25 -3 26 -6 29 -75z"/>
<path d="M5675 4771 c-73 -25 -237 -129 -259 -164 -22 -34 -21 -57 3 -112 34
-76 41 -123 50 -365 10 -242 24 -348 48 -357 15 -6 150 57 229 107 54 33 91
82 99 132 5 28 13 42 27 46 18 4 19 11 13 76 -3 39 -10 148 -15 241 -18 329
-44 406 -134 404 -23 -1 -50 -4 -61 -8z m113 -338 c17 -24 19 -411 2 -443 -10
-18 -93 -50 -131 -50 -14 0 -34 6 -45 14 -17 13 -19 30 -22 177 -3 147 -1 168
18 223 26 71 30 77 73 93 39 15 88 8 105 -14z"/>
<path d="M3548 4550 c-14 -11 -36 -24 -49 -30 -13 -6 -41 -21 -61 -33 -20 -12
-102 -60 -183 -107 -81 -47 -163 -95 -183 -107 -20 -12 -53 -30 -72 -41 -82
-45 -84 -46 -197 -119 -28 -18 -65 -50 -82 -70 -35 -43 -33 -73 8 -114 24 -23
37 -33 110 -81 46 -31 217 -129 276 -159 22 -12 58 -31 80 -44 22 -13 76 -42
120 -65 44 -23 87 -45 95 -50 33 -19 108 -50 166 -69 63 -20 91 -18 159 8 62
25 108 95 76 116 -15 9 -61 96 -61 114 0 10 15 25 33 34 17 10 46 26 62 37 17
11 44 27 60 36 17 9 37 22 45 29 8 7 26 16 40 20 14 4 32 13 40 20 20 18 72
23 77 9 3 -10 -20 -28 -89 -70 -10 -6 -26 -18 -36 -27 -10 -10 -23 -17 -29
-17 -5 0 -29 -14 -52 -31 -37 -26 -42 -34 -36 -57 4 -15 13 -34 20 -42 20 -22
52 -110 60 -163 4 -26 10 -170 14 -320 l6 -272 28 -3 c24 -3 208 78 256 113
52 38 79 74 86 113 13 79 45 63 45 -23 0 -59 -18 -91 -64 -111 -17 -8 -51 -28
-76 -44 -25 -16 -58 -36 -75 -45 -16 -9 -48 -27 -70 -40 -22 -14 -53 -32 -70
-40 -16 -9 -45 -25 -62 -36 -18 -11 -37 -18 -43 -14 -6 4 -10 97 -11 258 0
288 -8 394 -29 407 -42 27 -117 -13 -159 -83 l-26 -42 0 -362 c0 -284 3 -365
13 -375 9 -9 35 -12 82 -10 81 3 95 -14 33 -41 -21 -10 -69 -37 -108 -61 -38
-25 -97 -61 -130 -81 -33 -20 -80 -49 -105 -65 -25 -16 -52 -33 -60 -37 -8 -4
-26 -14 -40 -24 -14 -9 -74 -48 -135 -87 -103 -67 -220 -148 -273 -190 -18
-14 -29 -41 -44 -108 -18 -79 -21 -135 -25 -508 l-5 -420 24 -18 c12 -10 72
-46 131 -81 60 -34 125 -72 145 -84 21 -12 51 -30 67 -38 17 -9 46 -26 66 -38
20 -12 72 -42 114 -67 42 -25 94 -55 114 -67 20 -12 50 -29 66 -38 17 -8 48
-27 70 -40 22 -14 54 -32 70 -40 17 -9 51 -29 76 -44 l47 -29 11 24 c8 17 11
168 11 485 l0 460 -32 30 c-18 16 -36 29 -41 29 -8 0 -80 40 -175 97 -21 12
-50 29 -67 37 -16 9 -48 27 -70 41 -22 13 -53 31 -70 40 -16 9 -50 29 -75 45
-25 16 -55 34 -68 40 -12 5 -28 14 -35 20 -24 20 -88 60 -97 60 -5 0 -21 11
-37 24 -15 13 -38 27 -51 30 -13 4 -21 13 -19 19 5 15 57 10 77 -8 8 -7 26
-16 40 -20 13 -4 36 -15 50 -24 43 -29 64 -41 105 -61 22 -11 72 -38 110 -60
39 -23 88 -50 110 -61 22 -12 58 -31 80 -44 67 -40 158 -85 169 -85 6 0 25 -7
41 -16 17 -9 55 -18 85 -21 47 -4 65 0 123 26 37 17 76 40 87 51 19 19 19 22
5 50 -9 17 -19 30 -24 30 -16 0 -61 53 -61 73 0 19 76 97 94 97 5 0 39 19 75
43 36 23 93 55 126 71 33 15 72 34 87 42 29 15 124 19 132 5 10 -15 94 -51
120 -51 44 0 133 28 175 55 45 28 48 48 12 88 -18 21 -144 106 -234 158 -32
19 -74 44 -95 56 -20 12 -53 32 -72 43 -19 11 -53 32 -75 45 -22 13 -53 31
-70 40 -16 8 -48 27 -70 40 -22 13 -53 32 -69 41 -16 9 -34 20 -40 25 -11 10
-111 64 -176 96 -19 9 -54 16 -77 16 -24 -1 -43 3 -43 8 0 5 15 9 33 9 37 1
119 21 197 49 132 47 207 106 251 197 21 42 47 77 79 104 26 22 51 40 55 40
16 0 146 92 160 113 8 13 22 58 31 100 20 100 16 573 -7 652 -13 47 -16 50
-50 53 -26 2 -47 -4 -72 -21 -100 -68 -123 -142 -142 -451 -8 -126 -16 -231
-19 -233 -7 -7 -15 62 -21 182 -4 61 -15 181 -26 268 -16 130 -24 166 -44 197
-33 52 -65 71 -122 76 -27 2 -50 3 -53 4 -3 0 2 5 10 10 23 15 151 11 180 -5
72 -41 283 1 305 60 8 24 6 30 -21 54 -17 14 -46 35 -65 46 -19 11 -62 35 -95
55 -34 19 -164 94 -289 165 -124 72 -243 140 -263 152 -20 12 -50 29 -67 37
-16 9 -37 20 -45 26 -8 5 -26 15 -40 20 -14 6 -36 17 -50 25 -37 21 -102 19
-132 -5z m166 -394 c83 -55 108 -88 114 -145 6 -64 -12 -92 -78 -126 -55 -28
-107 -32 -153 -11 -18 7 -47 19 -65 26 -41 16 -36 36 9 33 152 -9 184 -3 222
40 25 29 21 62 -10 92 -40 38 -64 45 -158 45 -46 0 -86 4 -89 8 -3 5 16 23 42
40 63 42 101 41 166 -2z m-229 -196 c3 -5 -1 -10 -9 -10 -9 0 -16 5 -16 10 0
6 4 10 9 10 6 0 13 -4 16 -10z m798 -441 c5 -19 7 -99 5 -179 -3 -142 -4 -146
-34 -195 -36 -59 -125 -135 -157 -135 -13 0 -32 6 -42 14 -18 13 -20 28 -20
203 l0 188 29 40 c30 43 107 100 141 107 41 8 69 -7 78 -43z m336 17 c10 -21
11 -40 5 -65 -7 -29 -14 -37 -37 -39 -16 -2 -35 2 -43 9 -16 14 -19 81 -3 110
16 30 60 22 78 -15z m-505 -1434 c45 -31 60 -63 53 -116 -10 -74 -114 -146
-212 -146 -138 1 -258 124 -187 191 12 11 22 25 22 32 1 18 70 60 115 68 73
14 166 1 209 -29z m-1059 -242 c3 -5 -1 -10 -9 -10 -9 0 -16 5 -16 10 0 6 4
10 9 10 6 0 13 -4 16 -10z"/>
<path d="M3825 2046 c-16 -12 -18 -19 -10 -42 24 -66 169 -100 229 -53 14 11
26 26 26 33 0 26 -62 58 -129 67 -89 11 -94 11 -116 -5z"/>
<path d="M6935 4321 c-70 -29 -378 -202 -604 -338 -16 -10 -60 -36 -98 -57
-143 -83 -183 -118 -183 -163 0 -28 9 -40 68 -89 37 -30 83 -64 102 -75 19
-11 52 -30 72 -42 61 -37 167 -101 206 -124 20 -13 51 -30 67 -39 17 -8 48
-26 70 -40 22 -13 58 -33 80 -44 22 -12 64 -34 94 -50 30 -16 88 -39 129 -51
73 -22 74 -22 130 -4 65 21 122 68 122 101 0 11 -11 38 -25 58 -38 57 -33 87
23 136 26 23 60 49 77 57 16 9 35 22 43 29 7 8 21 14 30 14 10 0 25 9 35 20 9
11 23 20 31 20 7 0 24 8 37 19 42 32 131 47 202 32 34 -7 74 -19 89 -27 44
-23 103 -18 149 13 65 43 71 91 18 139 -22 19 -142 101 -194 131 -11 7 -69 40
-128 75 -60 35 -125 73 -145 85 -21 12 -47 27 -60 32 -12 6 -69 37 -125 69
-116 66 -249 133 -263 131 -5 -1 -27 -9 -49 -18z m162 -440 c25 -14 8 -18
-107 -25 -87 -6 -97 -8 -123 -35 -38 -37 -31 -83 14 -101 16 -7 29 -16 29 -21
0 -20 117 -9 173 16 53 23 56 26 62 70 9 57 22 58 30 1 10 -62 1 -81 -52 -110
-36 -21 -59 -26 -113 -26 -77 0 -100 6 -100 26 0 9 -11 14 -28 14 -18 0 -37
10 -55 31 -46 53 -32 144 27 170 26 11 219 4 243 -10z"/>
<path d="M2570 3900 c-15 -29 -4 -177 22 -277 27 -106 60 -143 209 -238 9 -5
34 -20 55 -33 22 -12 56 -33 76 -45 20 -12 71 -42 113 -67 100 -58 104 -61
146 -87 l36 -23 7 -234 c6 -217 8 -238 30 -289 41 -91 172 -181 257 -175 l44
3 17 65 c25 90 41 367 34 593 -5 179 -6 191 -31 232 -20 35 -101 105 -121 105
-4 0 -525 292 -554 311 -8 5 -33 18 -55 29 -22 11 -57 30 -78 43 -20 12 -73
41 -117 65 -77 41 -80 42 -90 22z"/>
<path d="M5930 3675 c-8 -10 -11 -57 -8 -167 4 -164 12 -195 70 -253 24 -24
127 -92 183 -120 17 -8 48 -26 70 -39 22 -14 54 -32 70 -40 17 -9 66 -36 110
-61 44 -25 94 -52 111 -60 17 -7 35 -20 41 -27 7 -8 12 -109 15 -263 4 -236 6
-252 28 -295 33 -65 83 -98 228 -150 60 -22 63 -22 82 -5 37 34 42 80 47 476
6 381 3 429 -27 429 -5 0 -26 11 -47 25 -21 14 -45 30 -53 35 -8 5 -32 21 -53
35 -21 14 -41 25 -45 25 -4 0 -33 18 -66 41 -32 22 -68 45 -80 50 -11 5 -41
23 -66 39 -25 16 -58 36 -75 45 -16 8 -48 26 -70 39 -22 14 -53 32 -70 41 -16
8 -48 27 -70 40 -22 14 -58 34 -80 45 -22 11 -58 31 -80 45 -22 14 -51 30 -64
35 -13 6 -35 19 -49 30 -30 24 -36 24 -52 5z"/>
<path d="M2025 3649 c-27 -16 -63 -36 -80 -44 -16 -8 -52 -28 -80 -45 -27 -16
-99 -58 -158 -92 -60 -35 -121 -71 -135 -80 -15 -10 -41 -25 -59 -35 -73 -41
-170 -98 -193 -113 -14 -9 -58 -39 -98 -65 -40 -26 -75 -51 -77 -55 -6 -10 59
-75 108 -108 66 -44 83 -56 128 -87 24 -17 51 -34 59 -38 8 -4 35 -21 60 -37
25 -17 59 -37 75 -46 17 -8 46 -25 67 -37 79 -48 235 -134 278 -154 124 -58
139 -63 194 -63 71 0 181 47 198 85 10 23 7 29 -40 73 -31 29 -52 57 -52 70 0
28 65 81 181 147 53 30 100 55 104 55 3 0 13 7 21 15 20 20 84 20 84 1 0 -8
-9 -18 -21 -21 -19 -6 -78 -42 -104 -63 -5 -4 -36 -23 -68 -42 -69 -42 -79
-68 -49 -121 63 -109 100 -351 111 -732 1 -48 19 -55 64 -25 19 13 61 39 93
58 32 19 83 56 115 82 54 45 58 51 74 120 24 104 24 356 1 518 -19 132 -28
153 -85 212 -29 30 -44 38 -73 38 -53 0 -56 18 -4 25 31 5 54 2 77 -9 48 -22
129 -46 160 -46 28 0 121 29 129 40 3 4 20 15 38 24 47 24 44 58 -10 93 -63
40 -71 46 -114 71 -22 12 -56 33 -76 45 -20 12 -71 42 -114 67 -42 25 -93 55
-113 67 -20 12 -49 29 -66 38 -16 8 -48 27 -70 40 -22 14 -53 32 -70 41 -16 8
-52 28 -80 44 -27 16 -63 36 -80 44 -16 9 -55 30 -85 46 -66 37 -100 36 -165
-1z m122 -369 c21 -11 43 -20 50 -20 7 0 16 -6 20 -13 4 -6 27 -25 51 -41 83
-57 68 -122 -48 -206 -29 -21 -46 -25 -105 -25 -63 0 -75 3 -118 33 -45 32
-87 93 -87 127 0 43 54 111 115 144 49 26 75 26 122 1z m558 -641 c23 -43 20
-243 -5 -359 -23 -114 -47 -145 -111 -145 -28 0 -45 6 -54 19 -20 26 -28 133
-20 249 8 119 38 200 88 238 59 45 79 44 102 -2z"/>
<path d="M2079 3228 c-53 -14 -109 -68 -109 -105 0 -35 13 -53 61 -81 90 -54
244 8 231 92 -5 30 -59 83 -90 89 -15 3 -34 8 -42 10 -8 3 -31 1 -51 -5z"/>
<path d="M7950 3659 c-19 -10 -40 -19 -45 -19 -6 0 -29 -21 -51 -46 -62 -73
-79 -148 -93 -404 -25 -449 -20 -408 -55 -435 -18 -14 -59 -39 -92 -57 -32
-17 -81 -44 -109 -59 -27 -16 -79 -43 -115 -60 -36 -18 -73 -39 -83 -48 -38
-32 -42 -7 -45 323 l-3 313 -24 23 -25 23 -48 -22 c-34 -16 -56 -36 -77 -68
-28 -45 -28 -47 -34 -247 -7 -223 2 -641 14 -669 6 -14 14 -17 34 -12 26 6
126 54 216 105 28 16 64 36 80 44 17 9 48 27 70 41 22 13 47 27 55 31 8 4 117
65 243 136 125 70 231 128 236 128 5 0 19 14 31 30 21 30 21 34 18 486 -3 437
-4 456 -22 470 -25 18 -33 17 -76 -7z m20 -324 c14 -17 18 -76 7 -117 -4 -16
-20 -34 -36 -42 -27 -14 -29 -14 -41 9 -17 31 -9 143 11 156 21 13 45 11 59
-6z"/>
<path d="M7470 3614 c-19 -7 -43 -13 -52 -13 -23 -1 -101 -55 -132 -92 -40
-47 -42 -72 -11 -152 24 -66 27 -90 36 -297 10 -218 32 -404 49 -415 15 -9
257 122 289 156 28 28 51 82 51 117 0 7 7 15 15 18 19 8 19 27 0 101 -8 32
-19 149 -24 266 -9 181 -13 214 -32 251 -34 69 -105 92 -189 60z m160 -290
c12 -12 15 -48 15 -197 0 -172 -1 -185 -24 -229 -34 -66 -107 -119 -150 -108
-36 8 -44 53 -38 205 7 176 31 258 93 315 47 43 70 46 104 14z"/>
<path d="M5766 3524 c-56 -20 -98 -65 -94 -100 2 -24 9 -31 40 -38 63 -16 110
5 137 60 l23 45 -23 25 c-26 27 -30 28 -83 8z"/>
<path d="M5400 3437 c-14 -6 -28 -16 -32 -21 -7 -10 -44 -32 -105 -60 -17 -9
-34 -20 -38 -26 -4 -6 -21 -17 -38 -26 -18 -8 -50 -26 -72 -39 -22 -13 -56
-34 -75 -45 -19 -11 -48 -29 -65 -40 -16 -11 -43 -27 -60 -35 -16 -9 -50 -29
-75 -45 -25 -16 -70 -44 -100 -61 -30 -18 -73 -46 -95 -61 -22 -16 -62 -44
-90 -63 -110 -75 -134 -127 -142 -311 -5 -114 -4 -125 18 -169 27 -53 95 -115
182 -166 32 -19 74 -44 95 -56 20 -13 51 -30 67 -39 17 -8 48 -26 70 -38 22
-13 72 -40 110 -61 39 -21 82 -46 97 -56 l26 -19 4 -253 c3 -247 3 -253 28
-296 22 -40 100 -109 124 -110 5 -1 33 -12 63 -27 62 -29 89 -25 105 14 15 39
24 848 9 885 -6 16 -25 35 -43 43 -18 9 -51 26 -73 39 -22 13 -56 34 -75 45
-19 11 -53 32 -75 45 -22 13 -53 31 -70 40 -16 9 -50 29 -75 45 -25 16 -58 36
-75 45 -45 23 -71 39 -89 54 -18 15 -65 42 -113 66 -18 8 -33 19 -33 24 0 5
-16 15 -35 21 -47 15 -49 45 -2 36 17 -3 37 -13 43 -21 6 -8 18 -15 26 -15 9
0 26 -8 39 -18 13 -9 53 -32 89 -51 36 -18 83 -44 105 -57 22 -13 58 -33 80
-44 22 -11 58 -31 80 -44 60 -35 233 -121 292 -145 74 -30 131 -28 180 8 92
67 105 113 43 156 -48 33 -51 57 -10 95 46 43 166 122 266 177 86 46 91 48
174 48 68 0 91 -4 114 -20 43 -29 118 -26 186 8 59 28 100 59 100 74 0 13 -39
47 -75 67 -16 9 -48 28 -70 42 -22 13 -53 32 -70 40 -16 8 -46 25 -67 37 -20
12 -85 50 -145 85 -59 35 -115 67 -123 72 -8 5 -58 33 -110 62 -52 29 -97 55
-100 59 -3 4 -21 14 -40 23 -19 9 -69 34 -110 56 -78 41 -108 47 -150 27z
m143 -433 c56 -11 21 -29 -71 -36 -100 -8 -127 -17 -137 -48 -18 -56 62 -97
169 -87 65 6 103 28 124 71 11 22 16 25 28 15 26 -21 17 -76 -18 -115 -29 -30
-42 -36 -103 -45 -38 -6 -99 -7 -135 -4 -57 6 -69 11 -102 45 -44 44 -50 89
-19 141 43 71 125 90 264 63z m77 -54 c0 -5 -7 -10 -15 -10 -8 0 -15 5 -15 10
0 6 7 10 15 10 8 0 15 -4 15 -10z m-1010 -214 c0 -9 -7 -12 -20 -9 -31 8 -34
23 -6 23 16 0 26 -6 26 -14z"/>
<path d="M4757 3343 c-4 -3 -7 -33 -7 -65 0 -49 4 -63 25 -83 42 -43 108 -28
139 30 10 18 16 41 14 51 -6 36 -147 91 -171 67z"/>
<path d="M1057 3003 c-12 -12 -8 -930 4 -957 6 -13 29 -32 50 -42 22 -9 44
-23 50 -31 6 -7 19 -13 29 -13 9 0 25 -9 35 -20 10 -11 26 -20 36 -20 10 0 24
-6 32 -14 8 -8 29 -22 48 -31 19 -9 50 -25 69 -36 76 -43 197 -110 235 -129
22 -11 60 -32 85 -46 118 -67 261 -136 274 -131 8 3 22 32 32 64 16 51 18 105
18 458 l1 399 -70 43 c-38 23 -83 49 -100 58 -16 8 -50 28 -75 43 -101 64
-722 412 -734 412 -7 0 -16 -3 -19 -7z"/>
<path d="M3035 2980 c-54 -25 -84 -59 -108 -122 -18 -48 -20 -87 -26 -388 l-6
-335 -60 -36 c-60 -36 -183 -105 -240 -135 -16 -8 -48 -26 -70 -39 -22 -13
-57 -33 -77 -45 l-38 -20 -4 22 c-3 13 -8 162 -13 331 -8 306 -8 309 -31 328
-27 22 -72 17 -114 -12 -15 -10 -31 -19 -36 -19 -5 0 -22 -16 -37 -36 -36 -48
-53 -154 -61 -394 -5 -140 -2 -224 10 -346 19 -187 26 -218 49 -222 16 -3 88
25 127 49 8 5 29 16 45 25 77 43 266 169 364 243 89 67 123 100 145 142 16 29
113 100 207 153 99 55 119 134 119 477 0 216 -8 312 -32 372 -8 22 -16 27 -42
26 -17 0 -49 -9 -71 -19z m19 -321 c5 -5 9 -32 8 -60 -1 -42 -6 -57 -28 -80
-22 -23 -31 -26 -46 -18 -42 23 -45 85 -7 148 16 26 24 31 42 25 12 -3 26 -10
31 -15z"/>
<path d="M6404 2744 c-58 -31 -91 -70 -118 -138 -17 -45 -20 -89 -25 -373 -6
-332 -6 -332 -49 -357 -11 -6 -55 -31 -97 -56 -41 -25 -88 -52 -103 -60 -15
-9 -53 -32 -85 -53 -31 -20 -61 -37 -66 -37 -5 0 -14 -7 -21 -15 -17 -20 -47
-19 -54 3 -12 37 -25 163 -31 297 -8 178 -24 334 -36 357 -5 10 -15 18 -22 18
-19 0 -159 -122 -178 -155 -46 -79 -64 -450 -34 -708 18 -151 26 -177 55 -177
19 0 112 38 150 60 8 5 33 18 55 29 22 11 76 40 120 65 44 24 112 61 150 81
39 20 88 47 110 60 22 13 58 33 80 44 22 12 48 25 58 31 9 5 25 14 35 20 175
96 232 133 238 154 3 13 4 222 2 463 -3 477 -3 473 -58 473 -15 0 -49 -12 -76
-26z m56 -315 c7 -11 12 -42 12 -67 0 -40 -5 -51 -32 -75 -45 -40 -60 -24 -60
61 0 47 5 71 17 84 22 24 50 23 63 -3z"/>
<path d="M5890 2694 c-71 -35 -138 -98 -146 -138 -4 -22 3 -54 20 -100 23 -59
27 -94 36 -255 6 -115 6 -234 1 -311 -5 -69 -7 -128 -4 -132 19 -32 170 37
276 125 90 74 92 86 92 437 l0 305 -25 45 -25 45 -85 3 c-75 2 -92 -1 -140
-24z m154 -301 c27 -53 36 -111 37 -233 0 -103 -3 -130 -21 -176 -19 -46 -27
-55 -65 -69 -33 -13 -48 -14 -63 -6 -39 21 -49 41 -62 120 -27 176 30 346 130
384 26 9 29 8 44 -20z"/>
<path d="M4260 2633 c-37 -14 -100 -75 -100 -98 0 -34 47 -68 83 -61 55 11
107 70 107 122 0 35 -45 53 -90 37z"/>
<path d="M7885 2551 c-11 -3 -31 -13 -45 -21 -14 -9 -37 -22 -52 -30 -28 -16
-292 -168 -356 -207 -20 -12 -50 -29 -67 -37 -16 -8 -66 -36 -110 -61 -44 -25
-87 -48 -95 -51 -8 -4 -39 -18 -69 -31 -46 -22 -65 -24 -135 -21 -80 4 -82 4
-166 63 -75 52 -91 59 -134 59 -46 1 -50 -1 -57 -27 -4 -16 -3 -41 2 -55 26
-68 199 -188 316 -218 53 -14 63 -14 113 2 30 9 62 22 70 29 8 7 26 16 40 20
14 4 32 13 40 20 13 11 182 109 245 143 21 11 262 169 290 189 6 5 33 23 60
42 28 19 74 54 103 79 48 40 53 48 50 80 -3 38 -11 44 -43 33z"/>
<path d="M3246 2434 c-3 -9 -6 -33 -6 -55 0 -57 26 -79 94 -79 50 0 56 2 74
32 20 32 20 32 1 59 -11 16 -38 33 -68 43 -63 20 -87 20 -95 0z"/>
<path d="M1133 1920 c-44 -18 -19 -114 44 -171 59 -53 263 -189 373 -247 142
-76 272 -144 375 -195 144 -72 174 -76 267 -28 107 54 189 100 215 121 14 11
30 20 35 20 5 0 21 8 36 18 15 11 47 32 72 48 25 16 87 60 139 99 52 38 102
76 112 84 20 14 24 38 10 60 -7 11 -17 11 -57 -4 -61 -23 -146 -64 -249 -121
-44 -24 -93 -51 -110 -60 -16 -8 -66 -35 -110 -60 -130 -72 -164 -86 -193 -79
-22 5 -240 122 -292 156 -8 5 -28 16 -45 25 -16 8 -48 26 -70 40 -22 13 -58
33 -80 44 -22 11 -56 30 -75 42 -34 21 -84 50 -145 84 -16 9 -35 23 -43 30 -7
8 -19 14 -26 14 -7 0 -21 9 -31 20 -10 11 -24 20 -30 20 -7 0 -23 8 -36 19
-32 25 -59 31 -86 21z"/>
<path d="M4945 1882 c-11 -4 -33 -16 -49 -27 -75 -53 -95 -77 -117 -138 -21
-58 -23 -83 -28 -377 -3 -173 -10 -321 -14 -327 -5 -7 -15 -13 -23 -13 -8 0
-17 -7 -20 -15 -3 -8 -21 -19 -40 -25 -19 -6 -34 -16 -34 -21 0 -5 -15 -16
-32 -24 -18 -9 -49 -26 -69 -38 -20 -12 -70 -41 -110 -65 -41 -23 -81 -48 -91
-54 -26 -19 -50 7 -46 50 3 34 5 36 63 52 33 9 78 26 100 38 22 12 45 22 51
22 6 0 17 6 23 14 7 8 27 18 44 22 18 3 43 15 56 25 13 11 32 19 42 19 10 0
25 13 34 29 12 25 13 52 5 178 -35 558 -32 523 -62 566 -23 33 -67 57 -103 57
-36 0 -157 -36 -225 -67 -63 -29 -140 -88 -140 -108 0 -7 17 -28 38 -47 21
-18 49 -51 63 -73 l24 -40 -1 -280 c-1 -159 -5 -293 -11 -310 -9 -26 -11 -16
-17 70 -18 267 -24 310 -47 357 -28 58 -60 69 -116 41 -65 -31 -92 -85 -109
-220 -25 -189 -29 -489 -9 -618 9 -59 19 -114 22 -122 9 -24 80 -9 154 31 35
20 78 42 94 51 17 8 37 19 45 24 8 5 93 54 188 108 95 54 189 108 210 120 78
46 108 64 144 86 20 12 66 39 101 59 101 59 97 42 97 383 0 382 -23 620 -59
614 -3 -1 -15 -4 -26 -7z m-54 -342 c15 -8 19 -21 19 -60 0 -40 -5 -56 -28
-81 -25 -28 -31 -30 -50 -20 -28 15 -38 71 -21 114 23 59 39 68 80 47z m-340
-80 c6 -19 13 -95 16 -167 5 -122 4 -137 -17 -185 -22 -52 -52 -88 -90 -108
-25 -14 -43 -13 -65 3 -15 12 -19 35 -26 148 -10 185 -4 241 36 293 17 22 49
51 70 63 37 21 41 21 53 6 7 -10 17 -33 23 -53z"/>
<path d="M6275 1616 c-44 -22 -103 -56 -130 -75 -27 -18 -58 -37 -69 -42 -12
-5 -41 -23 -66 -39 -25 -16 -54 -34 -65 -40 -11 -6 -40 -24 -65 -40 -25 -16
-58 -36 -75 -45 -16 -9 -48 -27 -70 -40 -151 -91 -270 -123 -356 -93 -19 6
-74 37 -123 70 -109 72 -156 77 -171 18 -9 -38 8 -73 67 -134 62 -64 102 -93
182 -129 68 -31 94 -33 144 -11 59 26 254 124 297 150 22 13 54 31 72 41 84
47 154 89 213 127 36 24 105 69 154 101 49 32 115 80 148 107 52 44 59 53 56
81 -3 28 -7 32 -33 33 -18 1 -62 -15 -110 -40z"/>
<path d="M2973 745 c-51 -36 25 -117 252 -266 66 -43 125 -82 130 -87 6 -5 41
-26 78 -48 37 -21 85 -49 105 -61 20 -13 55 -32 77 -43 22 -11 83 -44 135 -72
83 -45 102 -51 155 -51 55 0 71 5 185 65 69 37 150 80 180 97 30 17 69 38 85
46 17 8 48 26 70 40 22 13 56 34 75 45 19 11 53 32 75 45 22 13 47 27 55 31
46 21 192 125 233 166 116 116 12 118 -203 5 -102 -54 -240 -128 -295 -159
-27 -15 -63 -35 -80 -44 -16 -8 -48 -26 -70 -39 -116 -70 -247 -135 -271 -135
-28 0 -84 20 -84 30 0 4 -12 11 -27 15 -15 3 -56 24 -92 45 -36 21 -93 53
-126 71 -33 18 -78 43 -100 56 -22 13 -53 30 -70 39 -16 8 -48 26 -70 40 -22
13 -53 31 -70 40 -16 8 -52 28 -80 44 -162 90 -218 109 -252 85z"/>
</g>
</svg>
