<?xml version="1.0" standalone="no"?>
<!DOCTYPE svg PUBLIC "-//W3C//DTD SVG 20010904//EN"
 "http://www.w3.org/TR/2001/REC-SVG-20010904/DTD/svg10.dtd">
<svg version="1.0" xmlns="http://www.w3.org/2000/svg"
 width="135.000000pt" height="119.000000pt" viewBox="0 0 135.000000 119.000000"
 preserveAspectRatio="xMidYMid meet">

<g transform="translate(0.000000,119.000000) scale(0.100000,-0.100000)"
fill="#000000" stroke="none">
<path d="M40 710 l0 -430 233 -2 232 -3 0 -65 0 -65 -110 -5 c-106 -5 -113 -6
-151 -37 -86 -68 -118 -63 417 -63 l483 0 -29 30 c-45 47 -100 68 -201 75
l-92 7 -6 36 c-3 21 -6 49 -6 65 l0 27 240 0 240 0 0 430 0 430 -625 0 -625 0
0 -430z m1084 303 c-15 -112 -8 -103 -72 -103 -31 0 -81 -3 -109 -6 l-53 -7 0
-48 0 -49 -85 0 -85 0 0 -55 0 -55 -85 0 -85 0 0 -45 0 -45 -90 0 -90 0 0 -50
0 -50 -85 0 -85 0 0 -39 c0 -44 -10 -55 -40 -46 -19 6 -20 16 -20 321 l0 314
494 0 495 0 -5 -37z m60 -29 c10 -38 -11 -94 -35 -94 -16 0 -19 7 -19 44 0 24
3 51 6 60 10 26 41 19 48 -10z m-74 -113 c0 -5 -64 -44 -142 -86 -79 -43 -162
-89 -185 -102 l-43 -25 0 56 0 56 90 0 90 0 0 45 c0 38 4 47 23 55 29 11 167
13 167 1z m67 -478 c-2 -2 -199 -2 -436 -1 l-433 3 433 241 434 241 3 -240 c1
-132 1 -242 -1 -244z m-493 271 l47 -7 -53 -32 c-98 -58 -424 -235 -435 -235
-6 0 -13 14 -17 31 -12 60 -13 59 84 59 l90 0 0 44 0 44 78 7 c42 4 80 12 84
19 4 6 8 26 8 44 0 30 2 32 34 32 18 0 54 -3 80 -6z"/>
<path d="M192 993 c-37 -7 -19 -28 28 -31 39 -3 72 10 59 23 -9 8 -62 13 -87
8z"/>
<path d="M328 993 c-35 -9 -20 -33 21 -33 34 0 61 13 49 25 -7 7 -54 13 -70 8z"/>
<path d="M451 991 c-8 -5 -11 -16 -7 -26 5 -13 13 -15 38 -10 34 7 55 21 47
30 -11 11 -65 15 -78 6z"/>
<path d="M180 905 c-19 -22 -3 -35 46 -35 47 0 71 23 43 41 -22 14 -75 10 -89
-6z"/>
<path d="M317 913 c-4 -3 -7 -15 -7 -25 0 -14 8 -18 40 -18 43 0 66 24 39 41
-17 10 -63 12 -72 2z"/>
<path d="M453 914 c-7 -3 -13 -14 -13 -25 0 -16 7 -19 46 -19 41 0 45 2 42 23
-2 17 -10 22 -33 24 -16 1 -36 0 -42 -3z"/>
<path d="M175 810 c-13 -22 17 -41 59 -38 33 2 41 7 41 23 0 17 -8 20 -47 23
-26 2 -49 -2 -53 -8z"/>
<path d="M312 798 c2 -17 10 -24 33 -26 37 -3 60 11 52 32 -4 11 -19 16 -47
16 -37 0 -41 -2 -38 -22z"/>
<path d="M440 800 c0 -38 83 -41 88 -2 3 20 -1 22 -42 22 -39 0 -46 -3 -46
-20z"/>
</g>
</svg>
