<?xml version="1.0" standalone="no"?>
<!DOCTYPE svg PUBLIC "-//W3C//DTD SVG 20010904//EN"
 "http://www.w3.org/TR/2001/REC-SVG-20010904/DTD/svg10.dtd">
<svg version="1.0" xmlns="http://www.w3.org/2000/svg"
 width="174.000000pt" height="127.000000pt" viewBox="0 0 174.000000 127.000000"
 preserveAspectRatio="xMidYMid meet">

<g transform="translate(0.000000,127.000000) scale(0.100000,-0.100000)"
fill="#000000" stroke="none">
<path d="M1392 1194 c-122 -59 -168 -220 -97 -340 30 -51 30 -54 5 -54 -25 0
-27 -27 -2 -34 31 -10 163 -28 168 -23 6 6 -62 137 -81 156 -7 7 -21 11 -30 8
-13 -6 -14 -11 -5 -28 20 -37 3 -31 -20 7 -50 81 -29 183 52 248 30 23 50 30
95 33 81 6 103 11 103 27 0 14 -50 26 -105 26 -16 -1 -54 -12 -83 -26z"/>
<path d="M1442 1146 c-73 -26 -128 -110 -120 -181 3 -26 8 -31 37 -35 29 -4
40 -14 66 -58 38 -66 46 -71 97 -62 83 16 138 82 138 169 0 83 -38 138 -115
168 -38 15 -62 15 -103 -1z m68 -27 c0 -5 -7 -9 -15 -9 -15 0 -20 12 -9 23 8
8 24 -1 24 -14z m72 -58 c-4 -11 -24 -38 -45 -61 -35 -40 -39 -41 -60 -28 -12
8 -32 21 -44 29 -13 8 -23 19 -23 26 0 16 0 16 43 -2 20 -8 38 -15 41 -15 2 0
23 16 46 35 48 40 52 42 42 16z m-217 -90 c-9 -16 -25 -3 -18 15 4 10 9 12 15
6 6 -6 7 -15 3 -21z m280 9 c-3 -5 -11 -10 -16 -10 -6 0 -7 5 -4 10 3 6 11 10
16 10 6 0 7 -4 4 -10z m-135 -141 c0 -5 -7 -9 -15 -9 -15 0 -20 12 -9 23 8 8
24 -1 24 -14z"/>
<path d="M435 1143 c-47 -5 -70 -23 -98 -78 -39 -77 -48 -141 -57 -433 -9
-304 -16 -344 -70 -452 -16 -32 -41 -71 -55 -89 l-27 -31 506 0 505 0 29 43
c69 100 96 179 112 330 15 129 5 252 -21 278 -14 14 -19 33 -19 69 0 28 -7 85
-16 126 -17 82 -9 155 22 202 9 13 13 26 10 30 -7 7 -765 12 -821 5z m142
-157 c30 -26 25 -48 -7 -28 -59 36 -118 -5 -106 -73 9 -44 38 -61 79 -46 30
12 36 29 12 36 -51 16 -50 16 -35 25 23 15 66 12 80 -6 18 -21 2 -64 -31 -83
-51 -28 -131 8 -145 66 -12 45 5 93 39 113 43 27 80 25 114 -4z m197 -5 c12
-13 17 -36 17 -74 0 -66 -13 -95 -46 -103 -65 -16 -105 98 -63 179 12 24 70
23 92 -2z m150 -3 c12 -47 7 -155 -9 -168 -19 -16 -23 -4 -27 70 -3 53 -4 55
-30 52 -36 -4 -35 3 3 39 37 35 55 37 63 7z m-436 -297 l27 -28 26 28 c42 45
51 34 22 -25 l-26 -53 27 -35 c27 -37 33 -58 16 -58 -15 0 -60 47 -60 62 0 7
-14 -4 -31 -25 -48 -58 -67 -49 -31 16 l30 52 -23 35 c-42 61 -25 84 23 31z
m282 -75 c0 -117 -36 -135 -42 -21 -3 56 -5 60 -25 57 -32 -5 -29 12 9 43 30
25 33 26 45 9 8 -11 13 -46 13 -88z m155 79 c25 -24 29 -41 25 -100 -4 -69
-64 -100 -106 -54 -29 32 -25 136 6 161 30 24 46 23 75 -7z m171 0 c22 -33 22
-116 1 -148 -37 -56 -88 -39 -108 36 -13 47 -5 84 23 115 28 29 63 28 84 -3z
m71 -171 c-9 -9 -28 6 -21 18 4 6 10 6 17 -1 6 -6 8 -13 4 -17z m-684 -144
c14 -16 30 -30 36 -30 5 0 18 14 28 30 17 29 43 41 43 20 0 -5 -13 -38 -29
-72 -17 -35 -33 -76 -36 -91 -8 -41 -27 -28 -40 29 -6 27 -21 68 -33 91 -26
50 -26 53 -8 53 8 0 26 -13 39 -30z m281 14 c24 -24 19 -60 -14 -97 -36 -42
-38 -57 -6 -57 37 0 40 -17 5 -24 -45 -9 -99 -7 -99 3 0 4 17 28 38 52 52 59
67 88 53 102 -8 8 -19 8 -41 0 -36 -13 -46 -6 -23 19 20 22 66 24 87 2z m169
-15 c23 -31 25 -94 5 -136 -17 -37 -66 -43 -93 -13 -23 26 -27 121 -6 158 17
32 67 27 94 -9z m164 1 c8 -14 12 -51 11 -85 -3 -54 -6 -61 -30 -73 -68 -32
-114 31 -88 123 7 25 20 50 29 55 27 17 65 7 78 -20z m67 -161 c-3 -5 -10 -7
-15 -3 -5 3 -7 10 -3 15 3 5 10 7 15 3 5 -3 7 -10 3 -15z"/>
<path d="M706 944 c-8 -30 2 -92 16 -100 23 -14 36 50 22 104 -8 30 -30 28
-38 -4z"/>
<path d="M866 649 c-7 -34 9 -109 23 -109 21 0 28 70 11 114 -13 35 -26 33
-34 -5z"/>
<path d="M1029 657 c-15 -33 1 -111 24 -115 14 -3 17 4 17 45 0 87 -19 118
-41 70z"/>
<path d="M864 325 c-7 -49 1 -95 16 -95 20 0 33 48 26 94 -9 61 -32 61 -42 1z"/>
<path d="M1026 338 c-8 -47 6 -102 27 -106 14 -3 17 5 17 51 0 31 -3 62 -6 71
-10 27 -33 18 -38 -16z"/>
</g>
</svg>
