<?xml version="1.0" standalone="no"?>
<!DOCTYPE svg PUBLIC "-//W3C//DTD SVG 20010904//EN"
 "http://www.w3.org/TR/2001/REC-SVG-20010904/DTD/svg10.dtd">
<svg version="1.0" xmlns="http://www.w3.org/2000/svg"
 width="183.000000pt" height="112.000000pt" viewBox="0 0 183.000000 112.000000"
 preserveAspectRatio="xMidYMid meet">

<g transform="translate(0.000000,112.000000) scale(0.100000,-0.100000)"
fill="#000000" stroke="none">
<path d="M1530 1071 c-88 -17 -170 -126 -170 -226 0 -45 17 -98 44 -138 26
-37 24 -47 -6 -47 -10 0 -18 -4 -18 -10 0 -14 30 -27 82 -33 27 -4 59 -9 73
-13 20 -5 25 -2 25 12 -1 26 -61 135 -82 148 -25 15 -33 0 -19 -31 l13 -28
-21 19 c-12 11 -28 43 -36 71 -14 45 -13 56 0 102 27 90 107 143 218 143 43 0
65 15 35 24 -29 9 -106 13 -138 7z"/>
<path d="M1563 1010 c-81 -18 -143 -91 -143 -167 0 -34 3 -37 50 -47 17 -3 34
-20 49 -48 35 -63 51 -78 83 -78 35 0 95 30 125 62 45 48 48 160 6 217 -38 50
-108 75 -170 61z m38 -23 c-1 -12 -15 -9 -19 4 -3 6 1 10 8 8 6 -3 11 -8 11
-12z m89 -54 c0 -13 -66 -93 -82 -98 -28 -10 -115 45 -103 65 5 7 18 4 42 -10
41 -24 59 -21 98 20 27 29 45 38 45 23z m-220 -88 c0 -8 -4 -15 -10 -15 -5 0
-10 7 -10 15 0 8 5 15 10 15 6 0 10 -7 10 -15z m272 0 c0 -5 -5 -11 -11 -13
-6 -2 -11 4 -11 13 0 9 5 15 11 13 6 -2 11 -8 11 -13z m-141 -138 c-1 -12 -15
-9 -19 4 -3 6 1 10 8 8 6 -3 11 -8 11 -12z"/>
<path d="M70 535 l0 -465 635 0 635 0 0 163 c0 89 -6 252 -13 362 -6 110 -11
243 -11 296 l2 96 -127 6 c-69 4 -350 7 -623 7 l-498 0 0 -465z m1160 198 c0
-217 -15 -260 -45 -128 -11 48 -13 50 -52 59 -39 8 -43 13 -68 69 -14 33 -27
58 -29 56 -2 -2 -18 -56 -36 -119 -17 -63 -36 -120 -42 -127 -13 -16 -60 -17
-76 -1 -7 7 -12 28 -12 48 0 48 -12 63 -61 75 -39 10 -43 14 -62 68 -12 31
-24 57 -27 57 -6 0 -38 -130 -56 -228 l-7 -33 -66 3 -66 3 -8 61 -8 62 -44 6
c-42 7 -44 9 -65 66 -12 33 -26 57 -31 55 -4 -3 -20 -59 -35 -124 l-28 -119
-36 -6 c-19 -3 -45 -6 -57 -6 l-23 0 0 190 0 190 520 0 520 0 0 -177z m-409
-144 c5 -8 9 -28 9 -46 0 -46 30 -63 110 -63 l66 0 12 58 c17 80 21 84 70 76
41 -6 43 -8 58 -63 18 -61 27 -71 64 -71 l25 0 -7 -82 c-3 -46 -7 -89 -7 -97
-2 -29 -16 2 -26 56 -17 93 -45 75 -45 -29 l0 -48 -85 0 -84 0 -3 68 c-2 52
-6 67 -18 67 -10 0 -16 -12 -18 -35 -1 -19 -5 -50 -8 -67 l-5 -33 -79 0 -80 0
0 33 c0 56 -12 107 -25 107 -13 0 -25 -51 -25 -107 l0 -33 -75 0 -75 0 0 48
c0 65 -9 92 -30 92 -23 0 -30 -20 -30 -86 l0 -54 -73 0 -74 0 -9 68 c-8 57
-12 67 -29 67 -16 0 -21 -8 -23 -35 -7 -96 -9 -100 -56 -100 l-43 0 -6 68 c-4
37 -7 82 -7 100 l0 32 74 0 75 0 11 58 c19 89 15 85 63 77 55 -9 55 -10 62
-53 15 -90 4 -82 113 -82 l98 0 13 53 c26 99 24 97 71 83 23 -7 46 -19 51 -27z
m-485 -357 c6 -4 13 -15 17 -24 9 -24 37 -23 37 1 0 24 19 31 88 31 61 0 75
-5 85 -32 9 -26 32 -22 45 7 12 25 15 26 89 23 72 -3 78 -5 81 -25 4 -31 30
-29 42 2 9 24 14 25 85 25 71 0 76 -1 85 -25 12 -31 38 -33 42 -2 3 20 10 22
63 25 32 2 68 1 80 -2 22 -6 61 -63 50 -74 -8 -8 -445 -19 -797 -21 l-238 -1
0 50 0 50 68 0 c37 0 72 -4 78 -8z"/>
</g>
</svg>
