<?xml version="1.0" standalone="no"?>
<!DOCTYPE svg PUBLIC "-//W3C//DTD SVG 20010904//EN"
 "http://www.w3.org/TR/2001/REC-SVG-20010904/DTD/svg10.dtd">
<svg version="1.0" xmlns="http://www.w3.org/2000/svg"
 width="136.000000pt" height="120.000000pt" viewBox="0 0 136.000000 120.000000"
 preserveAspectRatio="xMidYMid meet">

<g transform="translate(0.000000,120.000000) scale(0.100000,-0.100000)"
fill="#000000" stroke="none">
<path d="M60 700 l0 -430 230 0 230 0 0 -70 0 -70 -104 0 -104 0 -56 -46 c-31
-26 -56 -48 -56 -50 0 -2 217 -4 482 -4 l481 0 -24 26 c-56 60 -77 69 -189 74
l-105 5 -3 67 -3 68 236 0 235 0 0 430 0 430 -625 0 -625 0 0 -430z m1160 5
l0 -335 -535 0 -535 0 0 298 c0 163 3 314 6 335 l7 37 528 0 529 0 0 -335z"/>
<path d="M499 983 c-48 -3 -58 -7 -63 -26 -3 -12 -6 -92 -6 -178 l0 -156 68
-64 c169 -163 189 -164 347 -23 l85 75 0 179 c0 132 -3 181 -12 187 -14 8
-323 13 -419 6z m225 -145 l9 -58 44 0 c59 0 83 -14 83 -49 0 -38 -16 -49 -75
-53 l-50 -3 -8 -53 c-7 -43 -12 -53 -33 -58 -37 -9 -54 12 -54 66 l0 47 -59 7
c-62 7 -71 15 -71 62 0 26 14 32 85 36 39 3 40 4 45 48 7 59 16 72 48 68 24
-3 28 -8 36 -60z"/>
</g>
</svg>
